# xmcd
#
# Track frame offsets:
#	150
#	17882
#	38325
#	55834
#	64383
#	82388
#	101406
#	115861
#	134477
#	159870
#	168575
#	190595
#	205042
#
# Disc length: 2896 seconds
#
# Revision: 0
# Processed by: cddbd v1.5.2PL0 Copyright (c) Steve Scherf et al.
# Submitted via: dBpowerAMP V4.0
#
DISCID=aa0b4e0d
DTITLE=California Honeydrops - Spreadin' Honey
DYEAR=2010
DGENRE=R&B
TTITLE0=Train Song
TTITLE1=When It Was Wrong
TTITLE2=Spreadin' Honey
TTITLE3=Pumpkin Pie
TTITLE4=Let It Go
TTITLE5=Same Ol', Same Ol'
TTITLE6=All Them Things
TTITLE7=Lovin' Like This
TTITLE8=Cryin' Blues
TTITLE9=It Ain't Hard To Tell
TTITLE10=Brokedown
TTITLE11=Hell Yes, I Cheated
TTITLE12=Thank You
EXTD=
EXTT0=
EXTT1=
EXTT2=
EXTT3=
EXTT4=
EXTT5=
EXTT6=
EXTT7=
EXTT8=
EXTT9=
EXTT10=
EXTT11=
EXTT12=
PLAYORDER=
